<mxfile host="app.diagrams.net" modified="2022-05-02T16:06:10.363Z" agent="5.0 (Windows NT 10.0; Win64; x64) AppleWebKit/537.36 (KHTML, like Gecko) Chrome/100.0.4896.127 Safari/537.36" etag="PeTF3rnzE2WXKpmMB5d1" version="17.5.0" type="github">
  <diagram name="Page-1" id="42789a77-a242-8287-6e28-9cd8cfd52e62">
    <mxGraphModel dx="2070" dy="1157" grid="1" gridSize="10" guides="1" tooltips="1" connect="1" arrows="1" fold="1" page="1" pageScale="1" pageWidth="1100" pageHeight="850" background="none" math="0" shadow="0">
      <root>
        <mxCell id="0" />
        <mxCell id="1" parent="0" />
        <mxCell id="rIiolBMCMQAxF9hJ81JB-25" style="edgeStyle=orthogonalEdgeStyle;rounded=0;orthogonalLoop=1;jettySize=auto;html=1;exitX=0;exitY=1;exitDx=0;exitDy=0;entryX=0;entryY=0.5;entryDx=0;entryDy=0;fontSize=15;fontColor=#000000;strokeColor=#9E9E9E;" edge="1" parent="1" source="1ea317790d2ca983-1" target="1ea317790d2ca983-9">
          <mxGeometry relative="1" as="geometry" />
        </mxCell>
        <mxCell id="rIiolBMCMQAxF9hJ81JB-29" style="edgeStyle=orthogonalEdgeStyle;rounded=0;orthogonalLoop=1;jettySize=auto;html=1;exitX=1;exitY=1;exitDx=0;exitDy=0;entryX=0.5;entryY=0;entryDx=0;entryDy=0;fontSize=15;fontColor=#000000;strokeColor=#9E9E9E;" edge="1" parent="1" source="1ea317790d2ca983-1" target="1ea317790d2ca983-2">
          <mxGeometry relative="1" as="geometry" />
        </mxCell>
        <mxCell id="1ea317790d2ca983-1" value="1" style="ellipse;whiteSpace=wrap;html=1;rounded=0;shadow=1;comic=0;labelBackgroundColor=none;strokeWidth=1;fontFamily=Verdana;fontSize=15;align=center;" parent="1" vertex="1">
          <mxGeometry x="160" y="30" width="60" height="60" as="geometry" />
        </mxCell>
        <mxCell id="rIiolBMCMQAxF9hJ81JB-31" style="edgeStyle=orthogonalEdgeStyle;rounded=0;orthogonalLoop=1;jettySize=auto;html=1;exitX=1;exitY=1;exitDx=0;exitDy=0;entryX=0.5;entryY=0;entryDx=0;entryDy=0;fontSize=15;fontColor=#000000;strokeColor=#9E9E9E;" edge="1" parent="1" source="1ea317790d2ca983-2" target="1ea317790d2ca983-6">
          <mxGeometry relative="1" as="geometry" />
        </mxCell>
        <mxCell id="rIiolBMCMQAxF9hJ81JB-33" style="edgeStyle=orthogonalEdgeStyle;rounded=0;orthogonalLoop=1;jettySize=auto;html=1;exitX=0;exitY=1;exitDx=0;exitDy=0;entryX=0.5;entryY=0;entryDx=0;entryDy=0;fontSize=15;fontColor=#000000;strokeColor=#9E9E9E;" edge="1" parent="1" source="1ea317790d2ca983-2" target="1ea317790d2ca983-7">
          <mxGeometry relative="1" as="geometry" />
        </mxCell>
        <mxCell id="1ea317790d2ca983-2" value="&lt;span style=&quot;font-size: 15px&quot;&gt;3&lt;/span&gt;" style="ellipse;whiteSpace=wrap;html=1;rounded=0;shadow=1;comic=0;labelBackgroundColor=none;strokeWidth=1;fontFamily=Verdana;fontSize=15;align=center;" parent="1" vertex="1">
          <mxGeometry x="240" y="110" width="60" height="60" as="geometry" />
        </mxCell>
        <mxCell id="rIiolBMCMQAxF9hJ81JB-53" style="edgeStyle=orthogonalEdgeStyle;rounded=0;orthogonalLoop=1;jettySize=auto;html=1;exitX=0;exitY=0.5;exitDx=0;exitDy=0;entryX=1;entryY=0.5;entryDx=0;entryDy=0;fontSize=15;fontColor=#000000;strokeColor=#9E9E9E;" edge="1" parent="1" source="1ea317790d2ca983-6" target="1ea317790d2ca983-7">
          <mxGeometry relative="1" as="geometry" />
        </mxCell>
        <mxCell id="rIiolBMCMQAxF9hJ81JB-55" style="edgeStyle=orthogonalEdgeStyle;rounded=0;orthogonalLoop=1;jettySize=auto;html=1;exitX=0.5;exitY=1;exitDx=0;exitDy=0;entryX=0.5;entryY=0;entryDx=0;entryDy=0;fontSize=15;fontColor=#000000;strokeColor=#9E9E9E;" edge="1" parent="1" source="1ea317790d2ca983-6" target="rIiolBMCMQAxF9hJ81JB-45">
          <mxGeometry relative="1" as="geometry" />
        </mxCell>
        <mxCell id="1ea317790d2ca983-6" value="5" style="ellipse;whiteSpace=wrap;html=1;rounded=0;shadow=1;comic=0;labelBackgroundColor=none;strokeWidth=1;fontFamily=Verdana;fontSize=15;align=center;" parent="1" vertex="1">
          <mxGeometry x="370" y="210" width="60" height="60" as="geometry" />
        </mxCell>
        <mxCell id="rIiolBMCMQAxF9hJ81JB-50" style="edgeStyle=orthogonalEdgeStyle;rounded=0;orthogonalLoop=1;jettySize=auto;html=1;exitX=0.5;exitY=1;exitDx=0;exitDy=0;entryX=0.5;entryY=0;entryDx=0;entryDy=0;fontSize=15;fontColor=#000000;strokeColor=#9E9E9E;" edge="1" parent="1" source="1ea317790d2ca983-7" target="rIiolBMCMQAxF9hJ81JB-48">
          <mxGeometry relative="1" as="geometry" />
        </mxCell>
        <mxCell id="1ea317790d2ca983-7" value="&lt;span style=&quot;font-size: 15px&quot;&gt;4&lt;/span&gt;" style="ellipse;whiteSpace=wrap;html=1;rounded=0;shadow=1;comic=0;labelBackgroundColor=none;strokeWidth=1;fontFamily=Verdana;fontSize=15;align=center;" parent="1" vertex="1">
          <mxGeometry x="170" y="210" width="60" height="60" as="geometry" />
        </mxCell>
        <mxCell id="1ea317790d2ca983-9" value="2" style="ellipse;whiteSpace=wrap;html=1;rounded=0;shadow=1;comic=0;labelBackgroundColor=none;strokeWidth=1;fontFamily=Verdana;fontSize=15;align=center;direction=south;" parent="1" vertex="1">
          <mxGeometry x="30" y="480" width="60" height="60" as="geometry" />
        </mxCell>
        <mxCell id="rIiolBMCMQAxF9hJ81JB-3" value="main" style="text;html=1;strokeColor=none;fillColor=none;align=center;verticalAlign=middle;whiteSpace=wrap;rounded=0;fontSize=15;" vertex="1" parent="1">
          <mxGeometry x="10" y="30" width="60" height="30" as="geometry" />
        </mxCell>
        <mxCell id="rIiolBMCMQAxF9hJ81JB-26" value="IOException" style="text;html=1;strokeColor=none;fillColor=none;align=center;verticalAlign=middle;whiteSpace=wrap;rounded=0;fontSize=15;" vertex="1" parent="1">
          <mxGeometry x="30" y="360" width="60" height="30" as="geometry" />
        </mxCell>
        <mxCell id="rIiolBMCMQAxF9hJ81JB-34" value="args.length=0" style="text;html=1;strokeColor=none;fillColor=none;align=center;verticalAlign=middle;whiteSpace=wrap;rounded=0;fontSize=15;fontColor=#000000;" vertex="1" parent="1">
          <mxGeometry x="110" y="150" width="120" height="30" as="geometry" />
        </mxCell>
        <mxCell id="rIiolBMCMQAxF9hJ81JB-35" value="args.length!=0" style="text;html=1;strokeColor=none;fillColor=none;align=center;verticalAlign=middle;whiteSpace=wrap;rounded=0;fontSize=15;fontColor=#000000;" vertex="1" parent="1">
          <mxGeometry x="350" y="145" width="120" height="30" as="geometry" />
        </mxCell>
        <mxCell id="rIiolBMCMQAxF9hJ81JB-36" value="Infile=stdin" style="text;html=1;strokeColor=none;fillColor=none;align=center;verticalAlign=middle;whiteSpace=wrap;rounded=0;fontSize=15;fontColor=#000000;" vertex="1" parent="1">
          <mxGeometry x="100" y="225" width="60" height="30" as="geometry" />
        </mxCell>
        <mxCell id="rIiolBMCMQAxF9hJ81JB-37" value="fileName=args[0]" style="text;html=1;strokeColor=none;fillColor=none;align=center;verticalAlign=middle;whiteSpace=wrap;rounded=0;fontSize=15;fontColor=#000000;" vertex="1" parent="1">
          <mxGeometry x="430" y="225" width="120" height="30" as="geometry" />
        </mxCell>
        <mxCell id="rIiolBMCMQAxF9hJ81JB-60" style="edgeStyle=orthogonalEdgeStyle;rounded=0;orthogonalLoop=1;jettySize=auto;html=1;exitX=0.5;exitY=1;exitDx=0;exitDy=0;entryX=1;entryY=0;entryDx=0;entryDy=0;fontSize=15;fontColor=#000000;strokeColor=#9E9E9E;" edge="1" parent="1" source="rIiolBMCMQAxF9hJ81JB-45" target="rIiolBMCMQAxF9hJ81JB-48">
          <mxGeometry relative="1" as="geometry" />
        </mxCell>
        <mxCell id="rIiolBMCMQAxF9hJ81JB-45" value="7" style="ellipse;whiteSpace=wrap;html=1;rounded=0;shadow=1;comic=0;labelBackgroundColor=none;strokeWidth=1;fontFamily=Verdana;fontSize=15;align=center;fontColor=#000000;" vertex="1" parent="1">
          <mxGeometry x="370" y="470" width="60" height="60" as="geometry" />
        </mxCell>
        <mxCell id="rIiolBMCMQAxF9hJ81JB-48" value="8" style="ellipse;whiteSpace=wrap;html=1;rounded=0;shadow=1;comic=0;labelBackgroundColor=none;strokeWidth=1;fontFamily=Verdana;fontSize=15;align=center;" vertex="1" parent="1">
          <mxGeometry x="270" y="590" width="60" height="60" as="geometry" />
        </mxCell>
        <mxCell id="rIiolBMCMQAxF9hJ81JB-52" value="stut(inFile)" style="text;html=1;strokeColor=none;fillColor=none;align=center;verticalAlign=middle;whiteSpace=wrap;rounded=0;fontSize=15;fontColor=#000000;" vertex="1" parent="1">
          <mxGeometry x="255" y="650" width="90" height="30" as="geometry" />
        </mxCell>
        <mxCell id="rIiolBMCMQAxF9hJ81JB-56" value="fileName!=null" style="text;html=1;strokeColor=none;fillColor=none;align=center;verticalAlign=middle;whiteSpace=wrap;rounded=0;fontSize=15;fontColor=#000000;" vertex="1" parent="1">
          <mxGeometry x="380" y="350" width="140" height="30" as="geometry" />
        </mxCell>
        <mxCell id="rIiolBMCMQAxF9hJ81JB-57" value="fileName=null" style="text;html=1;strokeColor=none;fillColor=none;align=center;verticalAlign=middle;whiteSpace=wrap;rounded=0;fontSize=15;fontColor=#000000;" vertex="1" parent="1">
          <mxGeometry x="245" y="240" width="110" height="30" as="geometry" />
        </mxCell>
        <mxCell id="rIiolBMCMQAxF9hJ81JB-58" value="inFile=fileName" style="text;html=1;strokeColor=none;fillColor=none;align=center;verticalAlign=middle;whiteSpace=wrap;rounded=0;fontSize=15;fontColor=#000000;" vertex="1" parent="1">
          <mxGeometry x="410" y="490" width="160" height="30" as="geometry" />
        </mxCell>
        <mxCell id="rIiolBMCMQAxF9hJ81JB-61" value="stut" style="text;html=1;strokeColor=none;fillColor=none;align=center;verticalAlign=middle;whiteSpace=wrap;rounded=0;fontSize=15;fontColor=#000000;" vertex="1" parent="1">
          <mxGeometry x="610" y="30" width="60" height="30" as="geometry" />
        </mxCell>
        <mxCell id="rIiolBMCMQAxF9hJ81JB-66" style="edgeStyle=orthogonalEdgeStyle;rounded=0;orthogonalLoop=1;jettySize=auto;html=1;exitX=0;exitY=1;exitDx=0;exitDy=0;fontSize=15;fontColor=#000000;strokeColor=#9E9E9E;" edge="1" parent="1" source="rIiolBMCMQAxF9hJ81JB-62" target="rIiolBMCMQAxF9hJ81JB-67">
          <mxGeometry relative="1" as="geometry">
            <mxPoint x="650" y="465" as="targetPoint" />
          </mxGeometry>
        </mxCell>
        <mxCell id="rIiolBMCMQAxF9hJ81JB-73" style="edgeStyle=orthogonalEdgeStyle;rounded=0;orthogonalLoop=1;jettySize=auto;html=1;exitX=1;exitY=1;exitDx=0;exitDy=0;entryX=0;entryY=0.5;entryDx=0;entryDy=0;fontSize=15;fontColor=#000000;strokeColor=#9E9E9E;" edge="1" parent="1" source="rIiolBMCMQAxF9hJ81JB-62" target="rIiolBMCMQAxF9hJ81JB-72">
          <mxGeometry relative="1" as="geometry" />
        </mxCell>
        <mxCell id="rIiolBMCMQAxF9hJ81JB-62" value="1" style="ellipse;whiteSpace=wrap;html=1;rounded=0;shadow=1;comic=0;labelBackgroundColor=none;strokeWidth=1;fontFamily=Verdana;fontSize=15;align=center;" vertex="1" parent="1">
          <mxGeometry x="760" y="15" width="60" height="60" as="geometry" />
        </mxCell>
        <mxCell id="rIiolBMCMQAxF9hJ81JB-65" value="linecnt=1" style="text;html=1;strokeColor=none;fillColor=none;align=center;verticalAlign=middle;whiteSpace=wrap;rounded=0;fontSize=15;fontColor=#000000;" vertex="1" parent="1">
          <mxGeometry x="810" y="75" width="80" height="30" as="geometry" />
        </mxCell>
        <mxCell id="rIiolBMCMQAxF9hJ81JB-67" value="2" style="ellipse;whiteSpace=wrap;html=1;rounded=0;shadow=1;comic=0;labelBackgroundColor=none;strokeWidth=1;fontFamily=Verdana;fontSize=15;align=center;direction=south;fontColor=#000000;" vertex="1" parent="1">
          <mxGeometry x="640" y="495" width="60" height="60" as="geometry" />
        </mxCell>
        <mxCell id="rIiolBMCMQAxF9hJ81JB-68" value="IOException" style="text;html=1;strokeColor=none;fillColor=none;align=center;verticalAlign=middle;whiteSpace=wrap;rounded=0;fontSize=15;" vertex="1" parent="1">
          <mxGeometry x="620" y="365" width="60" height="30" as="geometry" />
        </mxCell>
        <mxCell id="rIiolBMCMQAxF9hJ81JB-76" style="edgeStyle=orthogonalEdgeStyle;rounded=0;orthogonalLoop=1;jettySize=auto;html=1;exitX=1;exitY=0;exitDx=0;exitDy=0;fontSize=15;fontColor=#000000;strokeColor=#9E9E9E;" edge="1" parent="1" source="rIiolBMCMQAxF9hJ81JB-72" target="rIiolBMCMQAxF9hJ81JB-77">
          <mxGeometry relative="1" as="geometry">
            <mxPoint x="880" y="235" as="targetPoint" />
          </mxGeometry>
        </mxCell>
        <mxCell id="rIiolBMCMQAxF9hJ81JB-78" style="edgeStyle=orthogonalEdgeStyle;rounded=0;orthogonalLoop=1;jettySize=auto;html=1;exitX=1;exitY=1;exitDx=0;exitDy=0;fontSize=15;fontColor=#000000;strokeColor=#9E9E9E;" edge="1" parent="1" source="rIiolBMCMQAxF9hJ81JB-72" target="rIiolBMCMQAxF9hJ81JB-79">
          <mxGeometry relative="1" as="geometry">
            <mxPoint x="740" y="225" as="targetPoint" />
          </mxGeometry>
        </mxCell>
        <mxCell id="rIiolBMCMQAxF9hJ81JB-72" value="3" style="ellipse;whiteSpace=wrap;html=1;rounded=0;shadow=1;comic=0;labelBackgroundColor=none;strokeWidth=1;fontFamily=Verdana;fontSize=15;align=center;direction=south;" vertex="1" parent="1">
          <mxGeometry x="780" y="135" width="60" height="60" as="geometry" />
        </mxCell>
        <mxCell id="rIiolBMCMQAxF9hJ81JB-74" value="inLine = inFIle.readline()" style="text;html=1;strokeColor=none;fillColor=none;align=center;verticalAlign=middle;whiteSpace=wrap;rounded=0;fontSize=15;fontColor=#000000;" vertex="1" parent="1">
          <mxGeometry x="840" y="150" width="180" height="30" as="geometry" />
        </mxCell>
        <mxCell id="rIiolBMCMQAxF9hJ81JB-86" style="edgeStyle=orthogonalEdgeStyle;rounded=0;orthogonalLoop=1;jettySize=auto;html=1;exitX=0.5;exitY=0;exitDx=0;exitDy=0;fontSize=15;fontColor=#000000;strokeColor=#9E9E9E;" edge="1" parent="1" source="rIiolBMCMQAxF9hJ81JB-77" target="rIiolBMCMQAxF9hJ81JB-87">
          <mxGeometry relative="1" as="geometry">
            <mxPoint x="940" y="335" as="targetPoint" />
          </mxGeometry>
        </mxCell>
        <mxCell id="rIiolBMCMQAxF9hJ81JB-77" value="5" style="ellipse;whiteSpace=wrap;html=1;rounded=0;shadow=1;comic=0;labelBackgroundColor=none;strokeWidth=1;fontFamily=Verdana;fontSize=15;align=center;direction=south;fontColor=#000000;" vertex="1" parent="1">
          <mxGeometry x="850" y="235" width="60" height="60" as="geometry" />
        </mxCell>
        <mxCell id="rIiolBMCMQAxF9hJ81JB-79" value="4" style="ellipse;whiteSpace=wrap;html=1;rounded=0;shadow=1;comic=0;labelBackgroundColor=none;strokeWidth=1;fontFamily=Verdana;fontSize=15;align=center;direction=south;fontColor=#000000;" vertex="1" parent="1">
          <mxGeometry x="680" y="675" width="60" height="60" as="geometry" />
        </mxCell>
        <mxCell id="rIiolBMCMQAxF9hJ81JB-80" value="inLine = null" style="text;html=1;strokeColor=none;fillColor=none;align=center;verticalAlign=middle;whiteSpace=wrap;rounded=0;fontSize=15;fontColor=#000000;" vertex="1" parent="1">
          <mxGeometry x="670" y="225" width="110" height="30" as="geometry" />
        </mxCell>
        <mxCell id="rIiolBMCMQAxF9hJ81JB-84" value="end stut" style="text;html=1;strokeColor=none;fillColor=none;align=center;verticalAlign=middle;whiteSpace=wrap;rounded=0;fontSize=15;fontColor=#000000;" vertex="1" parent="1">
          <mxGeometry x="605" y="730" width="70" height="30" as="geometry" />
        </mxCell>
        <mxCell id="rIiolBMCMQAxF9hJ81JB-85" value="inLine != null" style="text;html=1;strokeColor=none;fillColor=none;align=center;verticalAlign=middle;whiteSpace=wrap;rounded=0;fontSize=15;fontColor=#000000;" vertex="1" parent="1">
          <mxGeometry x="875" y="195" width="110" height="30" as="geometry" />
        </mxCell>
        <mxCell id="rIiolBMCMQAxF9hJ81JB-89" style="edgeStyle=orthogonalEdgeStyle;rounded=0;orthogonalLoop=1;jettySize=auto;html=1;exitX=1;exitY=0.5;exitDx=0;exitDy=0;fontSize=15;fontColor=#000000;strokeColor=#9E9E9E;" edge="1" parent="1" source="rIiolBMCMQAxF9hJ81JB-87" target="rIiolBMCMQAxF9hJ81JB-90">
          <mxGeometry relative="1" as="geometry">
            <mxPoint x="1020" y="415" as="targetPoint" />
            <Array as="points">
              <mxPoint x="1060" y="335" />
            </Array>
          </mxGeometry>
        </mxCell>
        <mxCell id="rIiolBMCMQAxF9hJ81JB-91" style="edgeStyle=orthogonalEdgeStyle;rounded=0;orthogonalLoop=1;jettySize=auto;html=1;exitX=0;exitY=0.5;exitDx=0;exitDy=0;fontSize=15;fontColor=#000000;strokeColor=#9E9E9E;" edge="1" parent="1" source="rIiolBMCMQAxF9hJ81JB-87" target="rIiolBMCMQAxF9hJ81JB-92">
          <mxGeometry relative="1" as="geometry">
            <mxPoint x="860" y="395" as="targetPoint" />
          </mxGeometry>
        </mxCell>
        <mxCell id="rIiolBMCMQAxF9hJ81JB-87" value="6" style="ellipse;whiteSpace=wrap;html=1;rounded=0;shadow=1;comic=0;labelBackgroundColor=none;strokeWidth=1;fontFamily=Verdana;fontSize=15;align=center;fontColor=#000000;" vertex="1" parent="1">
          <mxGeometry x="940" y="305" width="60" height="60" as="geometry" />
        </mxCell>
        <mxCell id="rIiolBMCMQAxF9hJ81JB-88" value="i = 0" style="text;html=1;strokeColor=none;fillColor=none;align=center;verticalAlign=middle;whiteSpace=wrap;rounded=0;fontSize=15;fontColor=#000000;" vertex="1" parent="1">
          <mxGeometry x="890" y="265" width="110" height="30" as="geometry" />
        </mxCell>
        <mxCell id="rIiolBMCMQAxF9hJ81JB-96" style="edgeStyle=orthogonalEdgeStyle;rounded=0;orthogonalLoop=1;jettySize=auto;html=1;exitX=1;exitY=0.5;exitDx=0;exitDy=0;fontSize=15;fontColor=#000000;strokeColor=#9E9E9E;" edge="1" parent="1" source="rIiolBMCMQAxF9hJ81JB-90" target="rIiolBMCMQAxF9hJ81JB-97">
          <mxGeometry relative="1" as="geometry">
            <mxPoint x="1020" y="495" as="targetPoint" />
          </mxGeometry>
        </mxCell>
        <mxCell id="rIiolBMCMQAxF9hJ81JB-90" value="7" style="ellipse;whiteSpace=wrap;html=1;rounded=0;shadow=1;comic=0;labelBackgroundColor=none;strokeWidth=1;fontFamily=Verdana;fontSize=15;align=center;direction=south;fontColor=#000000;" vertex="1" parent="1">
          <mxGeometry x="1030" y="395" width="60" height="60" as="geometry" />
        </mxCell>
        <mxCell id="rIiolBMCMQAxF9hJ81JB-122" style="edgeStyle=orthogonalEdgeStyle;rounded=0;orthogonalLoop=1;jettySize=auto;html=1;exitX=0.5;exitY=1;exitDx=0;exitDy=0;entryX=1;entryY=0.5;entryDx=0;entryDy=0;fontSize=15;fontColor=#000000;strokeColor=#9E9E9E;" edge="1" parent="1" source="rIiolBMCMQAxF9hJ81JB-92" target="rIiolBMCMQAxF9hJ81JB-72">
          <mxGeometry relative="1" as="geometry">
            <Array as="points">
              <mxPoint x="810" y="415" />
            </Array>
          </mxGeometry>
        </mxCell>
        <mxCell id="rIiolBMCMQAxF9hJ81JB-92" value="8" style="ellipse;whiteSpace=wrap;html=1;rounded=0;shadow=1;comic=0;labelBackgroundColor=none;strokeWidth=1;fontFamily=Verdana;fontSize=15;align=center;direction=south;fontColor=#000000;" vertex="1" parent="1">
          <mxGeometry x="830" y="385" width="60" height="60" as="geometry" />
        </mxCell>
        <mxCell id="rIiolBMCMQAxF9hJ81JB-93" value="i &amp;lt; inLine.length()" style="text;html=1;strokeColor=none;fillColor=none;align=center;verticalAlign=middle;whiteSpace=wrap;rounded=0;fontSize=15;fontColor=#000000;" vertex="1" parent="1">
          <mxGeometry x="1010" y="345" width="130" height="30" as="geometry" />
        </mxCell>
        <mxCell id="rIiolBMCMQAxF9hJ81JB-94" value="i &amp;gt;= inLine.length()" style="text;html=1;strokeColor=none;fillColor=none;align=center;verticalAlign=middle;whiteSpace=wrap;rounded=0;fontSize=15;fontColor=#000000;" vertex="1" parent="1">
          <mxGeometry x="815" y="345" width="130" height="30" as="geometry" />
        </mxCell>
        <mxCell id="rIiolBMCMQAxF9hJ81JB-95" value="c=inLine.charAt(i)" style="text;html=1;strokeColor=none;fillColor=none;align=center;verticalAlign=middle;whiteSpace=wrap;rounded=0;fontSize=15;fontColor=#000000;" vertex="1" parent="1">
          <mxGeometry x="1090" y="410" width="150" height="30" as="geometry" />
        </mxCell>
        <mxCell id="rIiolBMCMQAxF9hJ81JB-135" style="edgeStyle=orthogonalEdgeStyle;rounded=0;orthogonalLoop=1;jettySize=auto;html=1;exitX=1;exitY=1;exitDx=0;exitDy=0;entryX=0;entryY=0.5;entryDx=0;entryDy=0;fontSize=17;fontColor=#000000;strokeColor=#9E9E9E;" edge="1" parent="1" source="rIiolBMCMQAxF9hJ81JB-97" target="rIiolBMCMQAxF9hJ81JB-105">
          <mxGeometry relative="1" as="geometry" />
        </mxCell>
        <mxCell id="rIiolBMCMQAxF9hJ81JB-138" style="edgeStyle=orthogonalEdgeStyle;rounded=0;orthogonalLoop=1;jettySize=auto;html=1;exitX=1;exitY=0;exitDx=0;exitDy=0;entryX=0.5;entryY=0;entryDx=0;entryDy=0;fontSize=17;fontColor=#000000;strokeColor=#9E9E9E;" edge="1" parent="1" source="rIiolBMCMQAxF9hJ81JB-97" target="rIiolBMCMQAxF9hJ81JB-104">
          <mxGeometry relative="1" as="geometry" />
        </mxCell>
        <mxCell id="rIiolBMCMQAxF9hJ81JB-97" value="9" style="ellipse;whiteSpace=wrap;html=1;rounded=0;shadow=1;comic=0;labelBackgroundColor=none;strokeWidth=1;fontFamily=Verdana;fontSize=15;align=center;direction=south;fontColor=#000000;" vertex="1" parent="1">
          <mxGeometry x="1000" y="485" width="60" height="60" as="geometry" />
        </mxCell>
        <mxCell id="rIiolBMCMQAxF9hJ81JB-98" value="isDelimit (c)" style="text;html=1;strokeColor=none;fillColor=none;align=center;verticalAlign=middle;whiteSpace=wrap;rounded=0;fontSize=15;fontColor=#000000;" vertex="1" parent="1">
          <mxGeometry x="1060" y="500" width="100" height="30" as="geometry" />
        </mxCell>
        <mxCell id="rIiolBMCMQAxF9hJ81JB-101" value="true" style="text;html=1;strokeColor=none;fillColor=none;align=center;verticalAlign=middle;whiteSpace=wrap;rounded=0;fontSize=15;fontColor=#000000;" vertex="1" parent="1">
          <mxGeometry x="1100" y="535" width="60" height="30" as="geometry" />
        </mxCell>
        <mxCell id="rIiolBMCMQAxF9hJ81JB-103" value="false" style="text;html=1;strokeColor=none;fillColor=none;align=center;verticalAlign=middle;whiteSpace=wrap;rounded=0;fontSize=15;fontColor=#000000;" vertex="1" parent="1">
          <mxGeometry x="900" y="535" width="60" height="30" as="geometry" />
        </mxCell>
        <mxCell id="rIiolBMCMQAxF9hJ81JB-110" style="edgeStyle=orthogonalEdgeStyle;rounded=0;orthogonalLoop=1;jettySize=auto;html=1;exitX=0.5;exitY=1;exitDx=0;exitDy=0;fontSize=15;fontColor=#000000;strokeColor=#9E9E9E;entryX=0;entryY=0.5;entryDx=0;entryDy=0;" edge="1" parent="1" source="rIiolBMCMQAxF9hJ81JB-104" target="rIiolBMCMQAxF9hJ81JB-111">
          <mxGeometry relative="1" as="geometry">
            <mxPoint x="1030" y="735" as="targetPoint" />
          </mxGeometry>
        </mxCell>
        <mxCell id="rIiolBMCMQAxF9hJ81JB-104" value="11" style="ellipse;whiteSpace=wrap;html=1;rounded=0;shadow=1;comic=0;labelBackgroundColor=none;strokeWidth=1;fontFamily=Verdana;fontSize=15;align=center;" vertex="1" parent="1">
          <mxGeometry x="1070" y="605" width="60" height="60" as="geometry" />
        </mxCell>
        <mxCell id="rIiolBMCMQAxF9hJ81JB-109" style="edgeStyle=orthogonalEdgeStyle;rounded=0;orthogonalLoop=1;jettySize=auto;html=1;exitX=1;exitY=0.5;exitDx=0;exitDy=0;fontSize=15;fontColor=#000000;strokeColor=#9E9E9E;entryX=0.5;entryY=1;entryDx=0;entryDy=0;" edge="1" parent="1" source="rIiolBMCMQAxF9hJ81JB-105" target="rIiolBMCMQAxF9hJ81JB-111">
          <mxGeometry relative="1" as="geometry">
            <mxPoint x="1010" y="735" as="targetPoint" />
          </mxGeometry>
        </mxCell>
        <mxCell id="rIiolBMCMQAxF9hJ81JB-105" value="12" style="ellipse;whiteSpace=wrap;html=1;rounded=0;shadow=1;comic=0;labelBackgroundColor=none;strokeWidth=1;fontFamily=Verdana;fontSize=15;align=center;direction=south;" vertex="1" parent="1">
          <mxGeometry x="930" y="605" width="60" height="60" as="geometry" />
        </mxCell>
        <mxCell id="rIiolBMCMQAxF9hJ81JB-107" value="&lt;span style=&quot;font-size: 15px&quot;&gt;checkDupes (linecnt)&lt;/span&gt;" style="text;html=1;strokeColor=none;fillColor=none;align=center;verticalAlign=middle;whiteSpace=wrap;rounded=0;fontSize=15;fontColor=#000000;" vertex="1" parent="1">
          <mxGeometry x="1130" y="605" width="150" height="30" as="geometry" />
        </mxCell>
        <mxCell id="rIiolBMCMQAxF9hJ81JB-108" value="lastdelimit = false&lt;br&gt;&lt;span style=&quot;font-size: 15px&quot;&gt;curWord = curWord + c&lt;/span&gt;" style="text;html=1;strokeColor=none;fillColor=none;align=center;verticalAlign=middle;whiteSpace=wrap;rounded=0;fontSize=15;fontColor=#000000;" vertex="1" parent="1">
          <mxGeometry x="770" y="620" width="160" height="30" as="geometry" />
        </mxCell>
        <mxCell id="rIiolBMCMQAxF9hJ81JB-119" style="edgeStyle=orthogonalEdgeStyle;rounded=0;orthogonalLoop=1;jettySize=auto;html=1;exitX=0;exitY=0;exitDx=0;exitDy=0;entryX=1;entryY=0.333;entryDx=0;entryDy=0;entryPerimeter=0;fontSize=15;fontColor=#000000;strokeColor=#9E9E9E;" edge="1" parent="1" source="rIiolBMCMQAxF9hJ81JB-111" target="rIiolBMCMQAxF9hJ81JB-87">
          <mxGeometry relative="1" as="geometry">
            <Array as="points">
              <mxPoint x="1350" y="684" />
              <mxPoint x="1350" y="325" />
            </Array>
          </mxGeometry>
        </mxCell>
        <mxCell id="rIiolBMCMQAxF9hJ81JB-111" value="13" style="ellipse;whiteSpace=wrap;html=1;rounded=0;shadow=1;comic=0;labelBackgroundColor=none;strokeWidth=1;fontFamily=Verdana;fontSize=15;align=center;direction=south;" vertex="1" parent="1">
          <mxGeometry x="1310" y="675" width="60" height="60" as="geometry" />
        </mxCell>
        <mxCell id="rIiolBMCMQAxF9hJ81JB-120" value="i = i+1" style="text;html=1;strokeColor=none;fillColor=none;align=center;verticalAlign=middle;whiteSpace=wrap;rounded=0;fontSize=17;fontColor=#000000;" vertex="1" parent="1">
          <mxGeometry x="1350" y="295" width="60" height="30" as="geometry" />
        </mxCell>
        <mxCell id="rIiolBMCMQAxF9hJ81JB-121" value="checkDupes(linecnt)&lt;br&gt;linecnt++" style="text;html=1;strokeColor=none;fillColor=none;align=center;verticalAlign=middle;whiteSpace=wrap;rounded=0;fontSize=15;fontColor=#000000;" vertex="1" parent="1">
          <mxGeometry x="790" y="445" width="160" height="30" as="geometry" />
        </mxCell>
        <mxCell id="rIiolBMCMQAxF9hJ81JB-128" style="edgeStyle=orthogonalEdgeStyle;rounded=0;orthogonalLoop=1;jettySize=auto;html=1;exitX=0.5;exitY=1;exitDx=0;exitDy=0;fontSize=15;fontColor=#000000;strokeColor=#9E9E9E;" edge="1" parent="1" source="rIiolBMCMQAxF9hJ81JB-108" target="rIiolBMCMQAxF9hJ81JB-108">
          <mxGeometry relative="1" as="geometry" />
        </mxCell>
        <mxCell id="rIiolBMCMQAxF9hJ81JB-129" style="edgeStyle=orthogonalEdgeStyle;rounded=0;orthogonalLoop=1;jettySize=auto;html=1;exitX=0.75;exitY=1;exitDx=0;exitDy=0;entryX=0.826;entryY=1.139;entryDx=0;entryDy=0;entryPerimeter=0;fontSize=17;fontColor=#000000;strokeColor=#9E9E9E;" edge="1" parent="1" source="rIiolBMCMQAxF9hJ81JB-94" target="rIiolBMCMQAxF9hJ81JB-94">
          <mxGeometry relative="1" as="geometry" />
        </mxCell>
        <mxCell id="rIiolBMCMQAxF9hJ81JB-131" style="edgeStyle=orthogonalEdgeStyle;rounded=0;orthogonalLoop=1;jettySize=auto;html=1;exitX=0.5;exitY=1;exitDx=0;exitDy=0;fontSize=17;fontColor=#000000;strokeColor=#9E9E9E;" edge="1" parent="1" source="rIiolBMCMQAxF9hJ81JB-95" target="rIiolBMCMQAxF9hJ81JB-95">
          <mxGeometry relative="1" as="geometry" />
        </mxCell>
        <mxCell id="rIiolBMCMQAxF9hJ81JB-141" value="checkDupes" style="text;html=1;strokeColor=none;fillColor=none;align=center;verticalAlign=middle;whiteSpace=wrap;rounded=0;fontSize=17;fontColor=#000000;" vertex="1" parent="1">
          <mxGeometry x="10" y="860" width="110" height="30" as="geometry" />
        </mxCell>
        <mxCell id="rIiolBMCMQAxF9hJ81JB-145" style="edgeStyle=orthogonalEdgeStyle;rounded=0;orthogonalLoop=1;jettySize=auto;html=1;exitX=0;exitY=1;exitDx=0;exitDy=0;entryX=0;entryY=0.5;entryDx=0;entryDy=0;fontSize=17;fontColor=#000000;strokeColor=#9E9E9E;" edge="1" parent="1" source="rIiolBMCMQAxF9hJ81JB-142" target="rIiolBMCMQAxF9hJ81JB-144">
          <mxGeometry relative="1" as="geometry">
            <Array as="points">
              <mxPoint x="100" y="961" />
              <mxPoint x="100" y="1390" />
            </Array>
          </mxGeometry>
        </mxCell>
        <mxCell id="rIiolBMCMQAxF9hJ81JB-147" style="edgeStyle=orthogonalEdgeStyle;rounded=0;orthogonalLoop=1;jettySize=auto;html=1;exitX=1;exitY=1;exitDx=0;exitDy=0;fontSize=17;fontColor=#000000;strokeColor=#9E9E9E;" edge="1" parent="1" source="rIiolBMCMQAxF9hJ81JB-142" target="rIiolBMCMQAxF9hJ81JB-148">
          <mxGeometry relative="1" as="geometry">
            <mxPoint x="360" y="1040" as="targetPoint" />
          </mxGeometry>
        </mxCell>
        <mxCell id="rIiolBMCMQAxF9hJ81JB-142" value="1" style="ellipse;whiteSpace=wrap;html=1;rounded=0;shadow=1;comic=0;labelBackgroundColor=none;strokeWidth=1;fontFamily=Verdana;fontSize=15;align=center;" vertex="1" parent="1">
          <mxGeometry x="240" y="910" width="60" height="60" as="geometry" />
        </mxCell>
        <mxCell id="rIiolBMCMQAxF9hJ81JB-144" value="2" style="ellipse;whiteSpace=wrap;html=1;rounded=0;shadow=1;comic=0;labelBackgroundColor=none;strokeWidth=1;fontFamily=Verdana;fontSize=15;align=center;direction=south;" vertex="1" parent="1">
          <mxGeometry x="70" y="1390" width="60" height="60" as="geometry" />
        </mxCell>
        <mxCell id="rIiolBMCMQAxF9hJ81JB-146" value="lastdelimit=true" style="text;html=1;strokeColor=none;fillColor=none;align=center;verticalAlign=middle;whiteSpace=wrap;rounded=0;fontSize=17;fontColor=#000000;" vertex="1" parent="1">
          <mxGeometry x="30" y="970" width="140" height="40" as="geometry" />
        </mxCell>
        <mxCell id="rIiolBMCMQAxF9hJ81JB-151" style="edgeStyle=orthogonalEdgeStyle;rounded=0;orthogonalLoop=1;jettySize=auto;html=1;exitX=1;exitY=0;exitDx=0;exitDy=0;fontSize=17;fontColor=#000000;strokeColor=#9E9E9E;" edge="1" parent="1" source="rIiolBMCMQAxF9hJ81JB-148" target="rIiolBMCMQAxF9hJ81JB-152">
          <mxGeometry relative="1" as="geometry">
            <mxPoint x="440" y="1170" as="targetPoint" />
          </mxGeometry>
        </mxCell>
        <mxCell id="rIiolBMCMQAxF9hJ81JB-153" style="edgeStyle=orthogonalEdgeStyle;rounded=0;orthogonalLoop=1;jettySize=auto;html=1;exitX=1;exitY=1;exitDx=0;exitDy=0;fontSize=17;fontColor=#000000;strokeColor=#9E9E9E;" edge="1" parent="1" source="rIiolBMCMQAxF9hJ81JB-148" target="rIiolBMCMQAxF9hJ81JB-154">
          <mxGeometry relative="1" as="geometry">
            <mxPoint x="280" y="1140" as="targetPoint" />
          </mxGeometry>
        </mxCell>
        <mxCell id="rIiolBMCMQAxF9hJ81JB-148" value="3" style="ellipse;whiteSpace=wrap;html=1;rounded=0;shadow=1;comic=0;labelBackgroundColor=none;strokeWidth=1;fontFamily=Verdana;fontSize=15;align=center;direction=south;fontColor=#000000;" vertex="1" parent="1">
          <mxGeometry x="330" y="1010" width="60" height="60" as="geometry" />
        </mxCell>
        <mxCell id="rIiolBMCMQAxF9hJ81JB-149" value="lastdelimit=false" style="text;html=1;strokeColor=none;fillColor=none;align=center;verticalAlign=middle;whiteSpace=wrap;rounded=0;fontSize=17;fontColor=#000000;" vertex="1" parent="1">
          <mxGeometry x="345" y="930" width="140" height="40" as="geometry" />
        </mxCell>
        <mxCell id="rIiolBMCMQAxF9hJ81JB-150" value="lastdelimit=true" style="text;html=1;strokeColor=none;fillColor=none;align=center;verticalAlign=middle;whiteSpace=wrap;rounded=0;fontSize=17;fontColor=#000000;" vertex="1" parent="1">
          <mxGeometry x="390" y="1020" width="140" height="40" as="geometry" />
        </mxCell>
        <mxCell id="rIiolBMCMQAxF9hJ81JB-164" style="edgeStyle=orthogonalEdgeStyle;rounded=0;orthogonalLoop=1;jettySize=auto;html=1;exitX=1;exitY=0.5;exitDx=0;exitDy=0;entryX=0;entryY=0;entryDx=0;entryDy=0;fontSize=17;fontColor=#000000;strokeColor=#9E9E9E;" edge="1" parent="1" source="rIiolBMCMQAxF9hJ81JB-152" target="rIiolBMCMQAxF9hJ81JB-163">
          <mxGeometry relative="1" as="geometry" />
        </mxCell>
        <mxCell id="rIiolBMCMQAxF9hJ81JB-152" value="5" style="ellipse;whiteSpace=wrap;html=1;rounded=0;shadow=1;comic=0;labelBackgroundColor=none;strokeWidth=1;fontFamily=Verdana;fontSize=15;align=center;direction=south;fontColor=#000000;" vertex="1" parent="1">
          <mxGeometry x="520" y="1140" width="60" height="60" as="geometry" />
        </mxCell>
        <mxCell id="rIiolBMCMQAxF9hJ81JB-162" style="edgeStyle=orthogonalEdgeStyle;rounded=0;orthogonalLoop=1;jettySize=auto;html=1;exitX=1;exitY=0.5;exitDx=0;exitDy=0;fontSize=17;fontColor=#000000;strokeColor=#9E9E9E;entryX=0;entryY=1;entryDx=0;entryDy=0;" edge="1" parent="1" source="rIiolBMCMQAxF9hJ81JB-154" target="rIiolBMCMQAxF9hJ81JB-163">
          <mxGeometry relative="1" as="geometry">
            <mxPoint x="410" y="1380" as="targetPoint" />
          </mxGeometry>
        </mxCell>
        <mxCell id="rIiolBMCMQAxF9hJ81JB-154" value="4" style="ellipse;whiteSpace=wrap;html=1;rounded=0;shadow=1;comic=0;labelBackgroundColor=none;strokeWidth=1;fontFamily=Verdana;fontSize=15;align=center;direction=south;fontColor=#000000;" vertex="1" parent="1">
          <mxGeometry x="245" y="1140" width="60" height="60" as="geometry" />
        </mxCell>
        <mxCell id="rIiolBMCMQAxF9hJ81JB-155" value="curWord.equals(prevWord)" style="text;html=1;strokeColor=none;fillColor=none;align=center;verticalAlign=middle;whiteSpace=wrap;rounded=0;fontSize=17;fontColor=#000000;" vertex="1" parent="1">
          <mxGeometry x="440" y="1080" width="220" height="40" as="geometry" />
        </mxCell>
        <mxCell id="rIiolBMCMQAxF9hJ81JB-157" value="curWord.equals(prevWord)" style="text;html=1;strokeColor=none;fillColor=none;align=center;verticalAlign=middle;whiteSpace=wrap;rounded=0;fontSize=17;fontColor=#000000;" vertex="1" parent="1">
          <mxGeometry x="135" y="1080" width="220" height="40" as="geometry" />
        </mxCell>
        <mxCell id="rIiolBMCMQAxF9hJ81JB-159" value="print something" style="text;html=1;strokeColor=none;fillColor=none;align=center;verticalAlign=middle;whiteSpace=wrap;rounded=0;fontSize=17;fontColor=#000000;" vertex="1" parent="1">
          <mxGeometry x="570" y="1160" width="150" height="30" as="geometry" />
        </mxCell>
        <mxCell id="rIiolBMCMQAxF9hJ81JB-161" value="prevWord = curWord" style="text;html=1;strokeColor=none;fillColor=none;align=center;verticalAlign=middle;whiteSpace=wrap;rounded=0;fontSize=17;fontColor=#000000;" vertex="1" parent="1">
          <mxGeometry x="285" y="1155" width="200" height="30" as="geometry" />
        </mxCell>
        <mxCell id="rIiolBMCMQAxF9hJ81JB-167" style="edgeStyle=orthogonalEdgeStyle;rounded=0;orthogonalLoop=1;jettySize=auto;html=1;exitX=1;exitY=0.5;exitDx=0;exitDy=0;fontSize=17;fontColor=#000000;strokeColor=#9E9E9E;" edge="1" parent="1" source="rIiolBMCMQAxF9hJ81JB-163" target="rIiolBMCMQAxF9hJ81JB-168">
          <mxGeometry relative="1" as="geometry">
            <mxPoint x="410.6666666666665" y="1510" as="targetPoint" />
          </mxGeometry>
        </mxCell>
        <mxCell id="rIiolBMCMQAxF9hJ81JB-163" value="6" style="ellipse;whiteSpace=wrap;html=1;rounded=0;shadow=1;comic=0;labelBackgroundColor=none;strokeWidth=1;fontFamily=Verdana;fontSize=15;align=center;direction=south;fontColor=#000000;" vertex="1" parent="1">
          <mxGeometry x="380" y="1390" width="60" height="60" as="geometry" />
        </mxCell>
        <mxCell id="rIiolBMCMQAxF9hJ81JB-166" value="curWord = &quot;&quot;" style="text;html=1;strokeColor=none;fillColor=none;align=center;verticalAlign=middle;whiteSpace=wrap;rounded=0;fontSize=17;fontColor=#000000;" vertex="1" parent="1">
          <mxGeometry x="440" y="1405" width="130" height="30" as="geometry" />
        </mxCell>
        <mxCell id="rIiolBMCMQAxF9hJ81JB-168" value="7" style="ellipse;whiteSpace=wrap;html=1;rounded=0;shadow=1;comic=0;labelBackgroundColor=none;strokeWidth=1;fontFamily=Verdana;fontSize=15;align=center;direction=south;fontColor=#000000;" vertex="1" parent="1">
          <mxGeometry x="380.6666666666665" y="1480" width="60" height="60" as="geometry" />
        </mxCell>
        <mxCell id="rIiolBMCMQAxF9hJ81JB-169" value="end checkDupes" style="text;html=1;strokeColor=none;fillColor=none;align=center;verticalAlign=middle;whiteSpace=wrap;rounded=0;fontSize=17;fontColor=#000000;" vertex="1" parent="1">
          <mxGeometry x="440.67" y="1495" width="150" height="30" as="geometry" />
        </mxCell>
        <mxCell id="rIiolBMCMQAxF9hJ81JB-171" value="isDelimit" style="text;html=1;strokeColor=none;fillColor=none;align=center;verticalAlign=middle;whiteSpace=wrap;rounded=0;fontSize=17;fontColor=#000000;" vertex="1" parent="1">
          <mxGeometry x="800" y="860" width="100" height="30" as="geometry" />
        </mxCell>
        <mxCell id="rIiolBMCMQAxF9hJ81JB-173" style="edgeStyle=orthogonalEdgeStyle;rounded=0;orthogonalLoop=1;jettySize=auto;html=1;exitX=0.5;exitY=1;exitDx=0;exitDy=0;fontSize=17;fontColor=#000000;strokeColor=#9E9E9E;" edge="1" parent="1" source="rIiolBMCMQAxF9hJ81JB-172" target="rIiolBMCMQAxF9hJ81JB-174">
          <mxGeometry relative="1" as="geometry">
            <mxPoint x="1040.2857142857147" y="1019.9999999999998" as="targetPoint" />
          </mxGeometry>
        </mxCell>
        <mxCell id="rIiolBMCMQAxF9hJ81JB-172" value="1" style="ellipse;whiteSpace=wrap;html=1;rounded=0;shadow=1;comic=0;labelBackgroundColor=none;strokeWidth=1;fontFamily=Verdana;fontSize=15;align=center;" vertex="1" parent="1">
          <mxGeometry x="1010" y="910" width="60" height="60" as="geometry" />
        </mxCell>
        <mxCell id="rIiolBMCMQAxF9hJ81JB-177" style="edgeStyle=orthogonalEdgeStyle;rounded=0;orthogonalLoop=1;jettySize=auto;html=1;exitX=1;exitY=0;exitDx=0;exitDy=0;fontSize=17;fontColor=#000000;strokeColor=#9E9E9E;" edge="1" parent="1" source="rIiolBMCMQAxF9hJ81JB-174" target="rIiolBMCMQAxF9hJ81JB-178">
          <mxGeometry relative="1" as="geometry">
            <mxPoint x="1130" y="1160" as="targetPoint" />
          </mxGeometry>
        </mxCell>
        <mxCell id="rIiolBMCMQAxF9hJ81JB-179" style="edgeStyle=orthogonalEdgeStyle;rounded=0;orthogonalLoop=1;jettySize=auto;html=1;exitX=1;exitY=1;exitDx=0;exitDy=0;fontSize=17;fontColor=#000000;strokeColor=#9E9E9E;" edge="1" parent="1" source="rIiolBMCMQAxF9hJ81JB-174" target="rIiolBMCMQAxF9hJ81JB-180">
          <mxGeometry relative="1" as="geometry">
            <mxPoint x="950" y="1140" as="targetPoint" />
          </mxGeometry>
        </mxCell>
        <mxCell id="rIiolBMCMQAxF9hJ81JB-174" value="2" style="ellipse;whiteSpace=wrap;html=1;rounded=0;shadow=1;comic=0;labelBackgroundColor=none;strokeWidth=1;fontFamily=Verdana;fontSize=15;align=center;direction=south;fontColor=#000000;" vertex="1" parent="1">
          <mxGeometry x="1010" y="1030" width="60" height="60" as="geometry" />
        </mxCell>
        <mxCell id="rIiolBMCMQAxF9hJ81JB-175" value="i=0" style="text;html=1;strokeColor=none;fillColor=none;align=center;verticalAlign=middle;whiteSpace=wrap;rounded=0;fontSize=17;fontColor=#000000;" vertex="1" parent="1">
          <mxGeometry x="1040" y="990" width="60" height="30" as="geometry" />
        </mxCell>
        <mxCell id="rIiolBMCMQAxF9hJ81JB-187" style="edgeStyle=orthogonalEdgeStyle;rounded=0;orthogonalLoop=1;jettySize=auto;html=1;exitX=1;exitY=1;exitDx=0;exitDy=0;fontSize=17;fontColor=#000000;strokeColor=#9E9E9E;" edge="1" parent="1" source="rIiolBMCMQAxF9hJ81JB-178" target="rIiolBMCMQAxF9hJ81JB-191">
          <mxGeometry relative="1" as="geometry">
            <mxPoint x="1220" y="1320" as="targetPoint" />
          </mxGeometry>
        </mxCell>
        <mxCell id="rIiolBMCMQAxF9hJ81JB-190" style="edgeStyle=orthogonalEdgeStyle;rounded=0;orthogonalLoop=1;jettySize=auto;html=1;exitX=0;exitY=1;exitDx=0;exitDy=0;fontSize=17;fontColor=#000000;strokeColor=#9E9E9E;" edge="1" parent="1" source="rIiolBMCMQAxF9hJ81JB-178" target="rIiolBMCMQAxF9hJ81JB-192">
          <mxGeometry relative="1" as="geometry">
            <mxPoint x="1040" y="1320" as="targetPoint" />
          </mxGeometry>
        </mxCell>
        <mxCell id="rIiolBMCMQAxF9hJ81JB-178" value="4" style="ellipse;whiteSpace=wrap;html=1;rounded=0;shadow=1;comic=0;labelBackgroundColor=none;strokeWidth=1;fontFamily=Verdana;fontSize=15;align=center;fontColor=#000000;" vertex="1" parent="1">
          <mxGeometry x="1110" y="1130" width="60" height="60" as="geometry" />
        </mxCell>
        <mxCell id="rIiolBMCMQAxF9hJ81JB-180" value="3" style="ellipse;whiteSpace=wrap;html=1;rounded=0;shadow=1;comic=0;labelBackgroundColor=none;strokeWidth=1;fontFamily=Verdana;fontSize=15;align=center;direction=south;fontColor=#000000;" vertex="1" parent="1">
          <mxGeometry x="830" y="1330" width="60" height="60" as="geometry" />
        </mxCell>
        <mxCell id="rIiolBMCMQAxF9hJ81JB-181" value="i &amp;lt; delimits.length" style="text;html=1;strokeColor=none;fillColor=none;align=center;verticalAlign=middle;whiteSpace=wrap;rounded=0;fontSize=17;fontColor=#000000;" vertex="1" parent="1">
          <mxGeometry x="1070" y="1080" width="200" height="40" as="geometry" />
        </mxCell>
        <mxCell id="rIiolBMCMQAxF9hJ81JB-182" value="i &amp;gt;= delimits.length" style="text;html=1;strokeColor=none;fillColor=none;align=center;verticalAlign=middle;whiteSpace=wrap;rounded=0;fontSize=17;fontColor=#000000;" vertex="1" parent="1">
          <mxGeometry x="770" y="1090" width="200" height="40" as="geometry" />
        </mxCell>
        <mxCell id="rIiolBMCMQAxF9hJ81JB-186" value="return false" style="text;html=1;strokeColor=none;fillColor=none;align=center;verticalAlign=middle;whiteSpace=wrap;rounded=0;fontSize=17;fontColor=#000000;" vertex="1" parent="1">
          <mxGeometry x="810" y="1390" width="100" height="30" as="geometry" />
        </mxCell>
        <mxCell id="rIiolBMCMQAxF9hJ81JB-189" value="C = delimits[i]" style="text;html=1;strokeColor=none;fillColor=none;align=center;verticalAlign=middle;whiteSpace=wrap;rounded=0;fontSize=17;fontColor=#000000;" vertex="1" parent="1">
          <mxGeometry x="1170" y="1220" width="170" height="40" as="geometry" />
        </mxCell>
        <mxCell id="rIiolBMCMQAxF9hJ81JB-191" value="6" style="ellipse;whiteSpace=wrap;html=1;rounded=0;shadow=1;comic=0;labelBackgroundColor=none;strokeWidth=1;fontFamily=Verdana;fontSize=15;align=center;direction=south;fontColor=#000000;" vertex="1" parent="1">
          <mxGeometry x="1190" y="1290" width="60" height="60" as="geometry" />
        </mxCell>
        <mxCell id="rIiolBMCMQAxF9hJ81JB-200" style="edgeStyle=orthogonalEdgeStyle;rounded=0;orthogonalLoop=1;jettySize=auto;html=1;exitX=0.5;exitY=0;exitDx=0;exitDy=0;entryX=0.5;entryY=1;entryDx=0;entryDy=0;fontSize=17;fontColor=#000000;strokeColor=#9E9E9E;" edge="1" parent="1" source="rIiolBMCMQAxF9hJ81JB-192" target="rIiolBMCMQAxF9hJ81JB-178">
          <mxGeometry relative="1" as="geometry" />
        </mxCell>
        <mxCell id="rIiolBMCMQAxF9hJ81JB-192" value="5" style="ellipse;whiteSpace=wrap;html=1;rounded=0;shadow=1;comic=0;labelBackgroundColor=none;strokeWidth=1;fontFamily=Verdana;fontSize=15;align=center;direction=south;fontColor=#000000;" vertex="1" parent="1">
          <mxGeometry x="1010" y="1420" width="60" height="60" as="geometry" />
        </mxCell>
        <mxCell id="rIiolBMCMQAxF9hJ81JB-193" value="C != delimits[i]" style="text;html=1;strokeColor=none;fillColor=none;align=center;verticalAlign=middle;whiteSpace=wrap;rounded=0;fontSize=17;fontColor=#000000;" vertex="1" parent="1">
          <mxGeometry x="930" y="1220" width="170" height="40" as="geometry" />
        </mxCell>
        <mxCell id="rIiolBMCMQAxF9hJ81JB-196" value="return true" style="text;html=1;strokeColor=none;fillColor=none;align=center;verticalAlign=middle;whiteSpace=wrap;rounded=0;fontSize=17;fontColor=#000000;" vertex="1" parent="1">
          <mxGeometry x="1240.29" y="1305" width="109.71" height="30" as="geometry" />
        </mxCell>
        <mxCell id="rIiolBMCMQAxF9hJ81JB-201" value="i = i+1" style="text;html=1;strokeColor=none;fillColor=none;align=center;verticalAlign=middle;whiteSpace=wrap;rounded=0;fontSize=17;fontColor=#000000;" vertex="1" parent="1">
          <mxGeometry x="1100" y="1380" width="60" height="30" as="geometry" />
        </mxCell>
      </root>
    </mxGraphModel>
  </diagram>
</mxfile>
